<svg xmlns="http://www.w3.org/2000/svg" xmlns:svg="http://www.w3.org/2000/svg" id="svg2" width="512" height="512" version="1.1" viewBox="0 0 512 512"><metadata id="metadata7"/><g id="layer1" transform="translate(-225.71241,-376.40319)"><path style="fill:#e6e6e6;fill-opacity:1;fill-rule:evenodd;stroke:#000;stroke-width:20.54220009;stroke-linecap:butt;stroke-linejoin:miter;stroke-miterlimit:4;stroke-dasharray:none;stroke-opacity:1" id="path4219" d="M 302.72661,783.43101 H 665.9462 l 54.05608,-177.34215 c 13.57398,-64.76494 -71.20563,-117.066 -128.97595,-122.33764 -69.22988,-3.90004 -138.45977,-2.33678 -207.68966,0 -87.50464,-0.23213 -140.07059,51.9883 -141.30486,89.14524 z"/><g id="g4169" transform="matrix(10.2711,0,0,10.2711,-2047.7845,-8319.1316)"><path id="path4182" d="m 239.7782,866.16967 v 9.87012 h 5.81537" style="fill:none;fill-rule:evenodd;stroke:#000;stroke-width:1.69010401px;stroke-linecap:butt;stroke-linejoin:miter;stroke-opacity:1"/><g style="opacity:1;stroke:#000;stroke-width:3.38000011;stroke-miterlimit:4;stroke-dasharray:none;stroke-opacity:1" id="g4290" transform="matrix(0.5,0,0,0.5,-52.959735,511.56271)"><path style="fill:none;fill-rule:evenodd;stroke:#000;stroke-width:3.38000011;stroke-linecap:butt;stroke-linejoin:miter;stroke-miterlimit:4;stroke-dasharray:none;stroke-opacity:1" id="path4254" d="m 601.48271,709.21174 v 21.42678"/><path style="fill:none;fill-rule:evenodd;stroke:#000;stroke-width:3.38000011;stroke-linecap:butt;stroke-linejoin:miter;stroke-miterlimit:4;stroke-dasharray:none;stroke-opacity:1" id="path4258" d="m 602.11049,710.90041 h 4.696 c 5.99925,0 6.43432,8.41876 -0.11049,8.41876 H 602"/></g><path style="opacity:1;fill:none;fill-rule:evenodd;stroke:#000;stroke-width:1.69000006;stroke-linecap:butt;stroke-linejoin:miter;stroke-miterlimit:4;stroke-dasharray:none;stroke-opacity:1" id="path4258-3" d="m 248.09548,871.23384 h 2.34799 c 2.99963,0 3.21716,4.79337 -0.0552,4.79337 h -2.34801"/></g></g></svg>